<?xml version="1.0" standalone="no"?>
<!DOCTYPE svg PUBLIC "-//W3C//DTD SVG 20010904//EN"
 "http://www.w3.org/TR/2001/REC-SVG-20010904/DTD/svg10.dtd">
<svg version="1.0" xmlns="http://www.w3.org/2000/svg"
 width="1920.000000pt" height="1080.000000pt" viewBox="0 0 1920.000000 1080.000000"
 preserveAspectRatio="xMidYMid meet">
<metadata>
Created by potrace 1.12, written by Peter Selinger 2001-2015
</metadata>
<g transform="translate(0.000000,1080.000000) scale(0.100000,-0.100000)"
fill="#000000" stroke="none">
<path d="M0 5400 l0 -5400 3869 0 c3086 0 3871 3 3875 13 5 9 7 9 12 0 8 -18
264 -18 264 0 0 8 3 9 8 1 4 -6 48 -11 109 -11 81 -1 100 2 96 13 -2 7 -12 15
-21 17 -15 4 -15 5 1 6 9 0 26 -8 38 -20 11 -11 28 -18 37 -16 14 4 13 6 -5
12 -26 8 -50 65 -28 65 8 0 11 -7 8 -19 -4 -16 2 -21 31 -26 20 -4 40 -14 45
-23 10 -18 89 -11 102 10 7 10 9 9 9 -4 0 -26 56 -25 63 1 3 12 14 19 33 19
l28 0 -30 -17 -29 -16 30 -3 c16 -2 31 1 33 7 2 6 12 11 22 11 10 0 22 5 25
10 11 17 63 12 69 -7 3 -12 5 -9 4 7 -1 52 2 60 21 60 14 0 18 5 14 20 -4 16
0 20 21 20 21 0 26 -5 26 -24 0 -20 5 -24 23 -22 13 1 27 5 32 8 6 3 27 8 48
12 30 6 37 11 37 30 0 20 4 22 28 17 25 -5 25 -6 5 -9 -13 -2 -23 -10 -23 -18
0 -23 29 -29 44 -9 8 12 19 15 33 11 27 -9 25 -49 -2 -54 -11 -3 -24 -10 -28
-18 -12 -21 -33 -17 -45 9 -10 21 -11 21 -9 -5 1 -16 5 -28 9 -28 4 0 8 -4 8
-10 0 -5 -7 -10 -15 -10 -8 0 -15 7 -15 15 0 8 -4 15 -10 15 -5 0 -10 -4 -10
-10 0 -5 -7 -10 -15 -10 -8 0 -15 7 -15 16 0 10 -6 14 -15 10 -8 -3 -15 -2
-15 3 0 5 -11 11 -25 14 -36 6 -56 -30 -29 -50 12 -9 20 -10 22 -3 5 13 52 13
52 0 0 -15 153 -13 168 2 10 10 15 10 21 -1 7 -11 9 -11 14 0 5 12 7 12 15 0
5 -7 16 -11 23 -9 9 4 5 10 -13 18 -42 20 -34 35 17 35 45 0 66 -19 50 -45 -5
-8 10 -10 44 -8 49 3 51 4 57 36 7 38 16 40 44 10 21 -23 29 -51 8 -30 -7 7
-19 12 -27 12 -11 0 -10 -4 5 -15 40 -30 134 -9 102 23 -8 8 -6 11 9 9 15 -1
18 -7 15 -24 -4 -22 -2 -23 61 -23 42 0 67 4 71 13 5 9 7 9 12 0 4 -9 28 -13
70 -13 41 0 63 4 59 10 -3 6 -1 10 4 10 6 0 11 -4 11 -10 0 -16 1472 -14 1489
3 11 9 14 9 18 0 4 -10 814 -13 4004 -13 l3999 0 0 5400 0 5400 -9600 0 -9600
0 0 -5400z m9564 3308 c-3 -4 1 -8 8 -8 15 0 60 -46 103 -103 31 -41 33 -52
42 -178 l6 -86 -29 -6 c-16 -3 -33 -1 -38 4 -6 6 -3 9 8 9 9 0 15 4 11 10 -3
5 -12 7 -19 4 -9 -3 -19 7 -27 25 -8 17 -18 31 -23 31 -5 0 -2 8 6 18 8 9 18
25 21 35 13 34 29 6 24 -40 -4 -37 -2 -43 12 -41 12 3 15 14 13 48 -3 45 -19
90 -33 90 -3 0 -10 -10 -13 -22 l-7 -23 -9 23 c-5 12 -17 21 -27 21 -16 -1
-16 -2 -1 -6 13 -3 15 -10 8 -34 -5 -18 -5 -29 1 -29 5 0 3 -12 -4 -26 -10
-20 -23 -27 -50 -30 -21 -2 -37 1 -37 7 0 6 -6 6 -18 0 -14 -7 -18 -20 -16
-53 1 -24 -1 -37 -3 -30 -3 6 -11 12 -19 12 -15 0 -19 12 -7 24 10 10 13 36 3
36 -14 0 -32 -29 -28 -47 2 -11 -7 -24 -24 -35 -31 -19 -55 -15 -61 10 -3 13
-6 11 -15 -10 -11 -28 -40 -53 -30 -26 4 8 1 15 -5 16 -7 0 -23 3 -37 6 -14 4
-20 4 -13 0 19 -9 3 -35 -17 -29 -12 4 -22 -1 -29 -12 -10 -17 -10 -17 -11 2
-1 20 -1 20 -16 0 -12 -16 -18 -18 -34 -7 -17 10 -20 10 -20 -3 0 -24 -26 -17
-38 10 -7 14 -12 32 -12 39 0 17 -28 41 -37 32 -3 -3 1 -14 11 -25 15 -17 15
-19 1 -25 -9 -3 -24 -6 -32 -6 -13 0 -13 2 -2 17 11 13 11 15 1 9 -7 -4 -21
-5 -30 -1 -15 6 -14 8 6 16 13 5 22 14 20 21 -7 21 -26 20 -48 -2 -19 -19 -26
-20 -47 -11 -32 15 -33 14 -33 -8 0 -10 10 -25 22 -33 22 -15 22 -16 5 -41
-22 -34 -39 -35 -31 -3 3 13 1 27 -5 30 -7 4 -11 -1 -11 -13 0 -23 -16 -36
-25 -22 -3 6 -12 8 -20 4 -9 -3 -27 2 -41 12 -14 9 -28 14 -32 11 -3 -3 -16 1
-30 10 -13 8 -26 13 -29 10 -4 -3 -13 3 -20 14 -8 11 -19 18 -24 15 -5 -4 -12
1 -15 9 -3 9 -15 16 -25 16 -10 0 -18 5 -16 10 2 10 -29 29 -95 60 l-26 12 24
67 c13 36 24 67 24 68 0 2 9 3 20 3 11 0 19 3 19 8 -4 22 3 29 28 24 20 -4 25
-1 21 9 -4 10 5 14 34 16 22 1 46 7 54 13 7 7 21 9 30 6 9 -3 21 -3 27 1 19
12 37 14 105 15 34 1 62 5 62 10 0 4 15 8 33 9 17 0 41 4 52 8 11 5 25 4 32
-1 7 -5 18 -6 25 -2 21 13 48 15 48 3 0 -6 7 -3 16 6 9 9 23 14 31 11 8 -3 19
-6 24 -6 6 0 8 -4 5 -9 -9 -13 41 -6 59 9 10 8 15 9 15 2 0 -15 77 -9 93 7 6
6 16 11 22 11 5 0 3 -5 -5 -10 -13 -8 -13 -10 2 -10 9 0 18 6 21 13 3 9 9 7
24 -5 24 -22 30 -22 66 -4 15 8 36 13 47 11 11 -2 20 -1 20 3 0 4 9 8 19 8 11
0 17 -4 15 -8z m-474 -642 c0 5 5 1 11 -8 13 -24 41 -23 56 1 8 13 19 18 33
14 20 -5 20 -7 4 -24 -17 -19 -10 -25 20 -20 5 1 3 -5 -4 -14 -7 -9 -15 -28
-16 -43 -2 -15 0 -22 4 -17 4 6 12 10 17 10 6 0 24 4 42 8 23 6 42 3 72 -12
22 -12 47 -21 56 -21 8 0 15 -5 15 -11 0 -7 15 -10 40 -7 22 2 40 0 40 -3 0
-4 17 -16 37 -26 20 -10 39 -24 41 -31 5 -15 -103 -122 -124 -122 -8 0 -14 -4
-14 -10 0 -6 -3 -9 -7 -8 -5 1 -20 -6 -35 -16 -53 -35 -165 -66 -260 -73 -91
-5 -221 8 -256 26 -9 5 -51 26 -93 46 -78 37 -204 144 -197 166 3 10 47 29
103 46 11 4 34 16 50 28 46 33 99 55 123 50 13 -2 22 1 22 8 0 7 4 6 10 -3 5
-8 10 -11 10 -6 0 5 8 2 18 -8 18 -15 20 -15 37 4 17 18 20 19 41 5 13 -8 31
-15 41 -15 14 0 15 2 4 9 -11 7 -10 11 5 20 11 6 13 11 6 11 -7 0 -11 4 -7 10
3 5 13 6 23 3 13 -5 14 -3 5 7 -17 18 -5 44 13 29 8 -6 14 -8 14 -3z m-120
-2981 c140 -4 273 -5 295 -4 64 5 704 -5 1095 -16 198 -5 190 -4 184 -20 -8
-19 5 -19 30 0 25 19 120 21 113 3 -2 -8 -19 -12 -45 -11 -23 2 -42 -1 -42 -6
0 -17 31 -33 55 -29 14 3 25 1 25 -3 0 -5 -11 -9 -25 -9 -27 0 -32 -9 -14 -27
9 -9 17 -8 34 3 20 13 25 13 38 0 12 -12 17 -13 20 -3 3 7 6 5 6 -5 1 -11 9
-18 20 -18 21 0 40 -19 22 -21 -6 -1 -17 -2 -23 -3 -7 -1 -12 -7 -11 -13 2 -8
-20 -11 -64 -10 -55 1 -67 -2 -69 -16 -1 -10 4 -17 13 -17 12 0 13 3 4 13 -9
11 -2 12 37 6 26 -4 53 -8 60 -8 7 -1 10 -5 7 -11 -3 -5 -2 -10 4 -10 5 0 11
6 14 13 2 6 8 9 12 5 4 -4 2 -14 -5 -23 -13 -16 -40 -21 -40 -7 0 12 -92 14
-109 3 -9 -6 -20 -3 -33 9 -10 9 -42 20 -71 24 -29 3 -67 9 -84 12 -26 5 -33
3 -33 -9 0 -27 20 -68 30 -62 5 3 6 13 3 23 -6 15 -5 15 10 3 13 -10 17 -10
17 -1 0 7 8 10 20 7 11 -3 20 -1 20 5 0 5 7 2 16 -6 8 -9 23 -16 32 -17 12 0
11 -3 -6 -9 -12 -5 -29 -7 -37 -4 -8 3 -30 0 -50 -6 -31 -10 -34 -14 -23 -28
12 -15 11 -16 -6 -2 -16 13 -20 12 -30 -3 -8 -10 -16 -13 -22 -7 -7 7 -22 6
-43 -1 -17 -6 -35 -9 -38 -5 -3 3 -11 1 -18 -4 -15 -13 -148 -17 -199 -6 l-39
8 8 -29 c13 -50 11 -58 -15 -61 -14 -2 -30 -10 -37 -19 -12 -16 -52 -10 -65
11 -6 8 -11 7 -17 -3 -5 -7 -13 -11 -19 -7 -6 3 -14 -3 -17 -15 -4 -11 -21
-29 -38 -40 l-32 -19 55 0 c83 -1 40 -17 -55 -21 -76 -4 -80 -3 -83 18 -3 21
-8 23 -73 21 -39 -1 -73 -6 -76 -11 -3 -5 -23 -5 -44 -2 -21 4 -39 4 -39 1 0
-15 61 -30 144 -35 79 -5 90 -9 105 -30 l16 -24 -38 6 c-23 4 -37 2 -37 -5 0
-6 -8 -17 -17 -24 -17 -12 -17 -13 0 -20 10 -3 23 -2 30 5 16 16 37 14 37 -4
0 -8 6 -15 14 -15 9 0 12 7 9 21 -6 20 -3 21 38 14 24 -4 45 -8 47 -10 10 -9
-38 -70 -59 -75 -16 -4 -20 -8 -11 -14 6 -4 12 -15 12 -24 -1 -15 -2 -15 -15
2 -12 16 -18 17 -27 8 -19 -19 -45 -14 -64 11 l-16 22 5 -22 c5 -25 -20 -40
-37 -23 -8 8 -6 15 6 24 10 7 15 16 11 19 -11 12 -23 8 -23 -8 0 -10 -10 -15
-33 -15 -32 0 -57 -15 -57 -33 0 -5 15 -6 34 -3 20 4 37 2 41 -4 3 -5 1 -10
-4 -10 -6 0 -11 -4 -11 -10 0 -5 15 -10 34 -10 44 0 66 -9 66 -26 0 -18 -32
-18 -95 1 -27 9 -51 12 -53 8 -12 -36 -47 -44 -127 -30 -22 4 -34 4 -27 1 6
-3 12 -12 12 -20 0 -16 49 -23 90 -13 10 3 14 -3 13 -14 -1 -12 4 -17 14 -13
8 3 19 6 24 6 5 0 9 7 9 16 0 11 -6 14 -20 9 -11 -4 -20 -2 -20 4 0 13 41 14
93 2 45 -11 97 12 97 42 0 11 8 17 21 17 30 0 22 -44 -8 -48 -13 -2 -23 -10
-23 -18 0 -9 -11 -14 -31 -14 -16 0 -28 -4 -25 -9 3 -5 25 -6 50 -4 26 3 46 1
50 -6 4 -6 1 -11 -8 -11 -9 0 -16 -7 -16 -16 0 -26 -70 -11 -95 21 -23 27 -55
34 -55 10 0 -7 8 -19 18 -25 14 -8 12 -9 -10 -4 -20 4 -29 2 -34 -10 -4 -11
-19 -16 -45 -16 -35 0 -39 3 -39 24 0 28 -3 31 -47 40 -28 7 -31 5 -26 -13 5
-21 23 -29 23 -11 0 6 5 10 10 10 6 0 10 -9 10 -21 0 -16 -4 -19 -17 -14 -45
18 -54 18 -60 -4 -3 -12 -13 -21 -24 -21 -18 0 -58 18 -69 31 -3 3 -15 11 -27
18 -19 10 -23 9 -23 -3 0 -12 -13 -15 -67 -12 -68 4 -71 3 -20 -8 26 -6 39
-36 15 -36 -6 0 -9 -2 -7 -5 10 -9 49 8 49 21 0 24 40 16 49 -10 6 -15 20 -25
42 -30 18 -3 30 -8 28 -10 -2 -3 -33 2 -68 10 -49 12 -67 12 -75 3 -8 -8 -6
-10 11 -5 12 4 24 2 28 -4 4 -6 15 -8 26 -5 10 4 19 2 19 -3 0 -5 22 -12 49
-16 37 -5 50 -11 54 -26 3 -13 14 -20 30 -20 14 0 28 -7 31 -16 4 -10 0 -15
-12 -13 -30 3 -43 -1 -38 -10 13 -20 -25 -34 -79 -28 -30 3 -57 1 -60 -4 -4
-5 -15 -9 -26 -9 -14 0 -19 7 -19 25 0 14 -7 28 -16 32 -15 5 -15 7 0 15 18
10 22 38 6 38 -5 0 -10 -4 -10 -10 0 -5 -13 -10 -30 -10 -34 0 -41 23 -13 39
10 5 14 13 10 17 -4 5 -15 4 -24 -2 -16 -10 -101 2 -113 15 -3 4 -21 7 -40 9
-19 1 -37 6 -40 10 -3 4 -39 8 -80 10 -41 2 -79 7 -83 11 -5 5 3 6 17 4 21 -4
26 -1 26 14 0 16 6 19 43 17 l42 -2 -37 11 c-26 7 -38 16 -38 29 0 26 -17 22
-24 -5 -3 -14 -19 -28 -41 -37 -19 -7 -37 -22 -41 -32 -8 -25 -34 -24 -27 2 4
15 0 20 -16 20 -14 0 -20 4 -15 11 4 7 -4 10 -22 9 -52 -4 -54 -2 -43 26 11
31 7 39 -16 30 -11 -4 -14 -13 -10 -25 7 -24 -3 -31 -38 -24 -28 6 -38 23 -12
23 8 0 15 3 15 8 0 4 14 13 30 20 17 8 28 17 25 22 -3 5 1 11 7 13 7 3 3 6 -8
6 -13 1 -24 -6 -26 -17 -4 -15 -12 -18 -38 -14 -27 4 -31 8 -27 28 4 20 0 24
-22 25 -14 0 -20 3 -13 6 6 2 12 12 12 21 0 13 2 13 13 -3 15 -20 37 -13 37
12 0 11 6 13 23 8 22 -7 147 -16 147 -10 0 23 -15 34 -39 28 -14 -3 -29 -10
-32 -15 -3 -5 -18 -6 -33 -2 -31 8 -32 37 -1 42 17 3 18 1 5 -8 -13 -9 -12
-11 5 -8 15 3 20 11 18 31 -1 18 3 27 13 27 8 0 14 7 14 15 0 8 -9 15 -20 15
-11 0 -20 5 -20 11 0 6 -8 9 -17 7 -10 -2 -18 -8 -18 -13 -1 -38 -41 -45 -106
-18 -39 15 -43 15 -54 0 -7 -9 -27 -19 -46 -22 l-34 -5 32 10 c22 7 30 15 27
25 -4 11 1 15 16 15 18 0 20 3 11 14 -10 11 -8 15 6 18 10 2 -13 10 -52 17
-38 7 -77 19 -85 26 -10 9 -20 11 -30 5 -12 -8 -10 -10 10 -10 23 0 23 -1 7
-17 -16 -16 -19 -16 -27 -3 -7 10 -10 11 -10 3 0 -8 -14 -14 -32 -14 -24 -1
-27 -3 -10 -6 27 -5 19 -23 -11 -23 -16 0 -18 -3 -9 -9 10 -6 8 -10 -10 -15
-21 -6 -22 -7 -5 -20 24 -19 21 -23 -12 -18 -39 5 -46 26 -15 42 26 15 30 30
12 48 -9 9 -6 12 15 12 15 0 27 4 27 10 0 5 11 12 25 16 15 4 25 13 25 25 0
15 4 17 23 10 12 -4 28 -6 35 -4 7 3 12 -5 13 -19 0 -12 3 -17 6 -10 5 14 30
16 35 3 2 -5 33 -7 69 -4 65 5 66 6 65 34 -1 33 -20 38 -47 13 -10 -9 -24 -14
-31 -12 -8 3 -5 10 10 23 31 27 29 53 -4 53 -19 0 -25 -5 -21 -18 3 -13 -2
-17 -22 -18 -45 0 -50 -2 -46 -14 4 -10 -8 -12 -45 -10 -39 3 -50 1 -50 -11 0
-21 -27 -29 -34 -10 -8 19 1 33 20 33 8 0 14 9 14 20 0 17 -7 20 -47 21 -27 1
-52 1 -56 0 -5 -1 -6 3 -3 8 4 5 0 12 -6 15 -7 3 11 4 39 4 29 -1 55 1 59 4
10 10 -103 21 -141 14 -37 -7 -105 1 -105 13 0 4 17 5 39 3 33 -3 62 10 49 23
-8 8 -137 15 -141 8 -8 -13 12 -55 22 -48 12 7 64 -5 56 -13 -9 -10 -95 -8
-95 1 0 5 -6 4 -14 -2 -11 -9 -12 -6 -8 15 3 19 1 25 -7 20 -6 -4 -11 -2 -11
3 0 6 -7 11 -15 11 -8 0 -22 11 -30 24 -20 31 -48 38 -75 19 -18 -13 -31 -13
-78 -4 -32 6 -99 12 -149 14 -51 2 -95 6 -99 9 -8 9 34 21 46 13 5 -3 22 1 37
8 17 9 36 11 48 7 11 -4 24 -5 29 -2 4 2 12 -1 16 -8 4 -7 13 -9 20 -5 16 10
-6 24 -40 26 l-25 1 25 8 c14 4 49 8 78 9 29 1 52 6 52 12 0 6 -24 9 -62 8
-35 -1 -73 1 -84 5 -15 4 -24 2 -28 -9 -5 -13 -10 -14 -28 -4 -21 11 -21 12
-3 25 14 10 15 14 4 15 -8 0 -6 4 6 9 31 13 154 11 216 -4 54 -13 88 -8 76 10
-3 5 11 10 31 11 20 1 40 -3 43 -9 4 -7 40 -12 83 -13 67 -2 76 0 71 14 -4 12
1 18 17 19 13 1 48 5 78 10 50 7 53 8 33 20 -27 15 -65 15 -98 0 -19 -8 -31
-8 -48 0 -12 6 -34 14 -49 16 -15 3 -33 8 -39 12 -7 4 -9 3 -6 -3 14 -23 -247
-3 -313 24 -8 4 -18 7 -22 7 -21 3 -16 16 8 21 49 11 55 14 49 26 -5 7 16 10
67 9 113 -3 1042 10 1046 15 2 2 9 2 15 0 7 -2 127 -7 267 -10z m1114 -481
c23 -9 20 -31 -6 -39 -20 -6 -20 -8 -5 -12 9 -2 17 -14 17 -25 0 -15 -4 -18
-17 -13 -58 24 -133 23 -133 -1 0 -8 -10 -14 -25 -14 -14 0 -24 -5 -22 -12 1
-7 -8 -14 -20 -16 -18 -3 -23 1 -23 17 0 25 -44 39 -71 22 -25 -15 -26 -14
-32 9 -5 19 0 20 83 20 73 0 91 3 99 17 6 12 20 16 49 15 30 -2 43 2 51 15 6
11 11 13 11 5 0 -7 5 -10 10 -7 6 4 8 11 5 16 -7 10 6 12 29 3z m-1883 -574
c-7 -27 -2 -53 11 -61 22 -15 30 -10 13 7 -9 9 -13 19 -10 22 5 6 51 -15 75
-34 12 -10 20 -9 39 7 20 17 22 21 10 36 -8 9 -9 14 -3 10 7 -4 34 -8 60 -9
27 -1 43 -3 36 -6 -16 -5 15 -60 37 -65 9 -2 -11 -2 -44 -1 -33 1 -61 7 -63
13 -6 17 -22 13 -22 -5 0 -13 -7 -15 -37 -10 -29 5 -34 4 -23 -4 11 -8 5 -10
-27 -5 -26 4 -43 3 -43 -3 0 -5 -19 -10 -42 -10 -24 0 -37 2 -30 5 19 7 14 20
-10 27 -19 5 -21 8 -8 16 8 5 11 10 5 11 -101 11 -174 -9 -167 -45 4 -17 1
-16 -28 5 -17 13 -42 30 -53 36 -22 13 -22 13 3 14 14 1 45 3 70 5 25 2 59 5
75 5 24 1 25 2 8 6 -13 2 -23 10 -23 18 0 7 -6 16 -12 19 -7 4 -2 4 12 1 14
-3 49 -8 78 -10 43 -4 52 -2 52 10 0 12 8 15 33 13 23 -2 31 -7 28 -18z m619
-25 c8 0 18 4 21 9 12 15 47 -4 51 -29 3 -14 1 -22 -4 -19 -5 4 -27 7 -49 8
-34 1 -39 -2 -39 -21 0 -13 6 -23 13 -23 9 0 9 -2 -1 -8 -20 -13 -3 -42 27
-43 23 -2 24 -2 4 -6 -13 -2 -23 -9 -23 -14 0 -14 -63 -7 -67 8 -2 6 4 13 14
16 10 3 5 5 -13 6 -32 1 -55 -23 -31 -33 7 -2 -1 -5 -16 -5 -16 -1 -26 3 -22
9 9 14 -7 12 -29 -5 -12 -9 -29 -12 -44 -8 -13 3 -27 1 -31 -4 -3 -6 -26 -7
-56 -3 -27 4 -42 8 -33 9 16 1 34 19 27 25 -2 2 -13 6 -24 10 -15 4 -23 -1
-32 -19 -6 -14 -7 -23 -2 -19 5 3 6 -2 3 -10 -7 -18 -24 -22 -24 -6 0 5 -7 7
-15 4 -11 -4 -13 -2 -9 9 8 21 -24 36 -65 29 l-34 -5 21 23 c16 17 27 21 48
16 16 -4 30 -3 34 4 5 8 11 8 21 -3 26 -25 69 5 69 50 0 15 -6 23 -17 23 -11
0 -14 3 -7 10 11 11 56 1 48 -11 -3 -5 9 -9 25 -9 19 0 31 -5 31 -13 0 -9 12
-14 31 -14 17 0 34 -5 39 -12 6 -10 12 -10 28 -2 11 6 34 8 51 5 20 -4 31 -2
31 5 0 6 -10 11 -23 11 -12 0 -33 7 -45 16 -13 9 -31 13 -42 9 -11 -3 -27 -2
-37 4 -36 20 72 25 140 6 24 -6 27 -4 27 16 0 13 4 20 8 14 4 -5 14 -10 22
-10z m652 -145 c15 0 33 -7 42 -15 8 -8 24 -15 35 -15 11 0 23 -4 26 -10 3 -5
19 -10 36 -10 16 0 29 -4 29 -9 0 -5 7 -8 16 -7 9 0 21 -8 28 -19 6 -11 17
-24 24 -28 15 -10 7 -27 -13 -27 -9 0 -12 6 -9 15 7 17 -31 22 -41 5 -11 -18
-66 -12 -72 9 -5 19 -78 50 -90 38 -3 -4 3 -7 15 -7 44 0 20 -33 -40 -56 -10
-3 -18 -13 -18 -20 0 -10 -13 -14 -39 -14 -36 0 -71 -19 -39 -21 10 0 10 -2 1
-6 -7 -2 -13 -11 -13 -20 0 -12 -11 -13 -57 -9 -58 5 -58 5 -15 -6 48 -12 56
-28 15 -28 -51 0 -70 11 -83 46 -10 25 -18 33 -29 28 -9 -3 -24 -9 -33 -11
-23 -7 -23 -32 -1 -40 15 -6 15 -7 -3 -14 -34 -14 -114 -10 -120 5 -3 8 -13
12 -25 9 -10 -3 -19 0 -19 6 0 6 -9 11 -20 11 -11 0 -19 3 -19 8 4 23 -3 42
-15 42 -8 0 -18 5 -22 11 -5 9 8 10 47 6 30 -3 49 -4 42 -1 -7 3 -9 12 -6 20
4 11 9 12 19 4 7 -7 10 -18 7 -26 -5 -13 34 -36 48 -28 3 2 5 -10 4 -26 -1
-24 2 -30 19 -30 15 0 17 3 8 12 -19 19 -15 40 7 33 13 -4 20 0 24 14 2 11 15
21 28 24 24 4 24 4 -1 4 -54 1 -57 2 -40 13 12 8 11 10 -7 10 -12 0 -30 3 -40
6 -13 4 -11 0 7 -14 28 -23 23 -37 -9 -27 -24 7 -28 43 -6 51 22 9 18 24 -5
24 -11 0 -20 -4 -20 -10 0 -5 -6 -10 -13 -10 -8 0 -14 7 -14 16 0 13 9 15 51
10 103 -12 110 -12 114 6 2 11 -3 17 -15 17 -34 0 -98 9 -117 17 -16 6 -18 4
-13 -10 6 -16 3 -18 -28 -12 -112 20 -103 20 -101 -8 0 -15 8 -29 18 -31 9 -3
19 -12 22 -20 8 -21 -21 -19 -32 1 -11 19 -34 10 -26 -9 3 -8 -12 -17 -41 -25
-25 -7 -43 -16 -40 -22 3 -5 23 -4 49 4 42 13 46 12 64 -8 20 -24 14 -66 -9
-66 -7 0 -10 3 -6 6 10 10 -26 41 -55 48 -24 5 -28 3 -28 -14 0 -13 7 -20 20
-20 11 0 20 -4 20 -9 0 -14 -21 -25 -29 -15 -3 5 -23 18 -43 29 -21 11 -38 23
-38 27 0 3 -26 5 -57 2 -39 -3 -51 -1 -38 5 11 4 23 7 28 4 4 -2 7 0 7 4 0 5
19 10 43 12 45 2 91 31 50 31 -13 0 -23 8 -27 23 l-6 22 -15 -21 c-8 -12 -28
-24 -45 -26 -28 -4 -30 -2 -30 26 0 52 9 58 72 45 46 -9 58 -16 62 -35 8 -30
57 -35 55 -6 0 10 -3 12 -6 5 -2 -7 -10 -13 -18 -13 -14 0 -29 70 -17 82 13
13 110 12 127 -2 9 -8 15 -8 15 -2 0 6 -4 14 -10 17 -19 11 -10 25 16 25 14 0
23 -4 20 -9 -8 -12 21 -34 36 -28 8 4 7 6 -4 6 -37 2 -16 16 25 18 23 1 36 -1
28 -4 -31 -12 13 -19 62 -10 29 6 96 10 149 9 78 0 98 2 102 15 5 12 15 14 44
9 20 -3 49 -6 64 -6z m-459 -307 c9 0 17 4 17 9 0 15 33 8 45 -9 10 -13 16
-14 26 -7 20 16 55 23 69 14 7 -5 23 -5 34 -1 12 5 34 2 55 -6 24 -10 41 -12
60 -4 16 6 53 6 96 2 39 -5 60 -9 48 -10 -13 0 -23 -5 -23 -11 0 -14 -37 -12
-43 3 -4 9 -8 9 -15 -2 -6 -8 -20 -12 -36 -9 -22 4 -24 3 -15 -13 8 -16 6 -19
-16 -19 -14 0 -25 6 -25 13 0 9 -2 9 -8 0 -12 -18 -62 -4 -62 18 0 20 -24 26
-35 9 -3 -5 -35 -10 -71 -10 -40 0 -64 -4 -64 -11 0 -6 -8 -1 -18 11 -12 15
-32 24 -58 26 -52 4 -53 5 -24 13 14 4 30 5 35 1 6 -4 18 -7 28 -7z m-463 -42
c0 -10 7 -22 16 -25 25 -10 84 -7 84 4 0 6 19 10 42 10 47 0 45 -6 -9 -26
l-38 -13 60 2 c58 1 95 20 95 47 0 6 7 11 15 11 56 5 78 2 83 -9 3 -9 17 -11
48 -6 35 5 45 3 50 -10 3 -9 1 -23 -5 -30 -9 -11 -9 -16 -1 -21 7 -4 1 -12
-16 -21 -33 -18 -41 -12 -17 12 17 17 17 17 1 11 -10 -3 -18 -3 -18 2 0 14
-45 27 -75 21 -28 -5 -29 -6 -10 -18 11 -6 18 -12 15 -13 -19 -7 -347 -3 -335
3 21 13 19 27 -5 25 -11 -1 -20 -7 -20 -14 0 -7 -11 -13 -25 -13 -28 0 -35 24
-10 34 8 3 20 17 27 31 13 30 48 34 48 6z m493 -24 c2 -6 24 -6 66 1 39 7 69
8 79 2 28 -15 112 -29 112 -18 0 6 20 8 45 6 32 -2 45 1 45 10 0 8 11 11 30
10 28 -2 29 -3 12 -21 -16 -19 -16 -19 6 -13 12 4 33 9 47 10 14 2 28 6 31 9
4 4 10 4 15 1 15 -9 -31 -44 -58 -44 -16 0 -48 7 -71 15 -42 15 -46 14 -92 -7
-47 -22 -58 -42 -35 -61 6 -5 4 -7 -6 -4 -9 3 -22 1 -30 -4 -12 -8 -12 -10 1
-19 8 -5 29 -10 45 -10 23 0 27 -3 15 -10 -8 -5 -13 -10 -10 -11 40 -6 61 -6
65 2 4 5 -1 9 -9 9 -22 0 -20 28 2 33 13 3 10 6 -10 11 -32 9 -38 36 -9 36 30
0 52 -11 45 -22 -9 -14 15 -28 49 -28 16 0 26 -4 22 -9 -3 -5 -1 -12 4 -15 5
-4 12 -2 15 2 3 5 17 7 31 4 20 -3 25 0 25 17 0 14 -6 21 -19 21 -14 0 -18 5
-14 19 4 18 15 20 96 20 51 0 109 3 129 7 30 5 39 3 50 -15 15 -25 33 -27 42
-6 3 8 12 15 21 15 13 0 12 -4 -4 -21 -17 -19 -26 -20 -73 -13 -62 9 -100 6
-109 -8 -4 -6 -25 -8 -50 -5 -24 3 -36 4 -26 1 9 -3 17 -10 17 -15 0 -12 113
1 122 15 5 7 21 7 54 -2 44 -12 50 -11 76 8 28 21 28 21 28 0 0 -20 12 -23 75
-22 15 1 16 -1 4 -4 -10 -3 -19 -14 -22 -25 -4 -13 -12 -19 -24 -17 -13 2 -17
-3 -16 -19 3 -26 -21 -32 -31 -8 -3 9 -19 15 -38 16 -31 1 -31 2 -8 9 24 7 23
7 -13 15 -20 4 -40 11 -43 16 -8 14 -62 11 -87 -5 -37 -24 -93 -30 -100 -12
-11 27 -27 18 -23 -14 2 -16 0 -28 -3 -25 -13 7 -34 -13 -28 -27 3 -9 20 -15
43 -16 21 -1 40 -5 43 -10 15 -22 45 -22 64 -1 l21 22 -27 -5 c-14 -3 -32 -1
-39 4 -8 6 13 7 57 3 38 -3 72 -11 76 -17 4 -6 27 -9 53 -7 25 2 46 1 46 -3 0
-5 -8 -8 -17 -9 -10 0 -38 -2 -63 -3 -25 -1 -51 -5 -57 -9 -8 -5 -13 -2 -13 8
0 14 -2 14 -24 0 -14 -9 -37 -15 -53 -14 -47 4 -63 0 -63 -16 0 -10 -10 -15
-27 -15 l-28 0 25 20 c22 17 21 25 -2 21 -5 0 -8 6 -8 14 0 10 -11 15 -35 15
-21 0 -35 -5 -35 -12 0 -9 -3 -9 -12 0 -17 17 -28 15 -29 -5 0 -16 -1 -16 -8
1 -4 12 -10 15 -14 9 -4 -6 -29 -13 -56 -17 -31 -4 -51 -12 -55 -22 -5 -12
-14 -15 -36 -10 -31 6 -41 -9 -20 -30 7 -7 1 -9 -20 -6 -34 5 -38 16 -12 31
15 9 15 10 -5 11 -12 0 -23 -5 -25 -11 -2 -6 -22 -13 -43 -14 -22 -2 -32 -1
-22 2 22 6 17 27 -6 31 -15 3 -23 -19 -18 -50 1 -9 -19 -11 -64 -8 -37 2 -41
6 -26 24 9 11 8 15 -5 20 -27 10 -55 7 -70 -9 -9 -8 -26 -15 -40 -15 -13 0
-24 -4 -24 -10 0 -5 -4 -10 -10 -10 -18 0 -10 22 10 27 11 3 20 9 20 14 0 13
69 28 125 28 55 -1 116 13 155 36 l25 14 -32 1 c-23 0 -33 -5 -33 -16 0 -8 -5
-12 -11 -9 -6 4 -8 13 -5 20 3 8 0 16 -7 19 -7 2 1 5 16 5 32 1 64 26 47 36
-11 7 -4 25 10 25 5 0 15 -6 22 -12 31 -29 87 -51 74 -29 -3 5 4 12 17 15 20
6 21 7 4 17 -9 5 -21 8 -26 4 -12 -7 -25 14 -26 40 0 16 -8 21 -42 23 -34 2
-43 0 -43 -12 0 -13 -11 -16 -47 -15 -27 1 -38 4 -25 6 13 3 26 11 29 19 4 10
23 14 70 14 54 0 63 2 54 13 -8 10 -35 13 -96 12 -47 -1 -85 2 -85 6 0 5 5 9
11 9 5 0 7 5 4 10 -4 6 -10 8 -15 5 -10 -6 -18 25 -12 44 4 12 7 11 18 -4 7
-10 15 -22 17 -28z m-5 -431 c-4 -19 -1 -22 14 -18 10 2 18 10 18 17 0 10 26
13 110 12 83 -2 109 -5 105 -14 -2 -8 4 -13 14 -13 11 0 21 5 23 10 2 6 24 12
51 13 26 1 47 5 47 9 0 3 21 0 47 -8 34 -10 49 -11 54 -3 9 15 99 23 99 9 0
-5 -11 -10 -25 -10 -35 0 -31 -18 8 -30 l32 -10 -32 5 c-25 3 -33 1 -33 -10 0
-11 -11 -15 -40 -15 -33 0 -40 -3 -40 -20 0 -18 -4 -20 -42 -14 -46 7 -62 14
-34 14 12 0 16 5 12 15 -3 9 1 18 8 21 21 8 28 34 11 34 -8 0 -15 -7 -15 -15
0 -8 -9 -15 -20 -15 -11 0 -20 7 -20 15 0 8 -6 15 -13 15 -23 0 -27 -12 -9
-27 18 -15 13 -15 -56 3 -20 6 -23 3 -20 -12 2 -13 12 -19 30 -19 14 0 30 -3
34 -7 4 -5 -9 -8 -29 -8 -20 0 -37 -4 -37 -10 0 -5 -7 -10 -15 -10 -20 0 -19
10 2 25 15 11 15 13 -5 19 -12 4 -22 14 -22 22 0 8 -4 14 -10 14 -15 0 -12
-11 7 -32 13 -14 13 -18 2 -18 -8 0 -23 -3 -34 -6 -14 -3 -23 2 -30 18 -9 20
-16 23 -55 20 -25 -2 -46 -8 -48 -13 -2 -5 -19 -9 -38 -9 -23 0 -33 -4 -29
-11 4 -6 13 -8 21 -5 10 4 14 -2 14 -19 0 -20 -5 -25 -26 -25 -19 0 -25 4 -20
15 5 13 2 14 -16 4 -19 -10 -20 -9 -14 15 5 22 3 26 -14 26 -11 0 -20 -7 -20
-14 0 -12 -6 -13 -30 -4 -17 5 -42 8 -55 6 -14 -3 -23 -1 -22 6 1 6 -8 10 -20
8 -15 -2 -23 2 -23 12 0 13 14 15 95 9 69 -4 95 -3 95 5 0 15 37 52 51 52 7 0
9 -10 7 -24z m-422 -51 c14 -14 35 -25 47 -26 20 0 20 -1 3 -8 -14 -5 -5 -10
37 -20 46 -10 55 -15 50 -29 -5 -14 -4 -15 8 -6 8 6 43 12 79 12 36 0 56 -2
45 -5 -11 -2 -25 -12 -32 -20 -6 -8 -16 -12 -22 -9 -5 4 -12 2 -16 -4 -3 -5
-19 -10 -35 -10 -36 0 -48 -16 -19 -25 15 -5 18 -10 10 -18 -7 -7 -15 -6 -26
3 -23 19 -28 6 -6 -14 18 -17 18 -56 0 -56 -5 0 -9 -7 -9 -15 0 -8 -7 -15 -15
-15 -8 0 -15 5 -15 10 0 7 -6 7 -19 0 -28 -15 -54 -13 -48 4 3 7 1 18 -3 22
-5 5 -6 14 -2 21 11 17 44 20 50 4 2 -8 0 -11 -6 -7 -5 3 -12 -1 -16 -9 -4
-11 2 -15 19 -15 18 0 25 5 25 19 0 27 -24 43 -54 35 -23 -5 -26 -3 -26 19 0
14 5 29 10 32 6 3 10 -1 10 -9 0 -18 16 -21 25 -6 3 6 17 10 30 10 12 0 25 7
29 15 4 11 -2 15 -21 15 -21 0 -24 3 -15 12 16 16 15 28 -3 28 -8 0 -15 -4
-15 -10 0 -18 -18 -10 -23 10 -3 11 -13 20 -22 20 -11 0 -15 5 -12 14 4 9 -2
17 -13 21 -20 6 -36 35 -19 35 5 0 21 -11 35 -25z m646 -116 c10 -5 18 -14 18
-19 0 -14 -11 -12 -31 6 -19 17 -84 11 -73 -7 3 -5 0 -9 -7 -9 -7 0 -5 -8 6
-20 18 -20 18 -21 -2 -26 -12 -3 -24 -15 -26 -26 -3 -11 -10 -18 -15 -14 -5 3
-33 8 -63 11 -30 3 -62 8 -71 11 -13 4 -18 0 -18 -15 0 -18 -6 -21 -44 -21
-25 0 -47 4 -50 9 -3 4 -28 11 -55 15 -43 6 -48 9 -44 26 3 13 14 20 29 20 13
0 28 9 34 20 13 24 30 26 30 4 0 -12 7 -15 24 -12 18 4 22 1 19 -13 -3 -10
-11 -20 -19 -23 -21 -8 -17 -26 6 -26 11 0 20 6 20 14 0 7 7 19 16 27 13 10
17 10 26 -2 8 -11 9 -11 4 3 -7 23 15 29 87 23 53 -4 57 -3 58 18 1 18 2 19 6
4 5 -19 30 -17 26 2 -2 6 2 11 7 11 6 0 10 7 10 16 0 13 7 15 37 9 21 -4 46
-11 55 -16z m463 -30 c5 -6 -4 -7 -23 -3 -30 6 -32 5 -30 -20 2 -27 13 -35 21
-13 3 9 7 9 20 -1 22 -19 1 -55 -27 -46 -10 3 -16 2 -13 -3 3 -4 -13 -17 -36
-28 -30 -15 -41 -17 -45 -7 -2 6 -13 12 -24 12 -11 0 -22 8 -25 18 -2 10 -13
19 -24 19 -11 1 -17 -2 -14 -7 3 -5 -11 -12 -31 -16 -19 -3 -38 -13 -41 -20
-6 -17 -26 -19 -20 -1 2 6 -10 18 -27 25 -26 10 -27 12 -6 8 14 -2 32 -6 41
-10 9 -4 24 1 37 13 16 13 19 21 10 24 -7 3 5 3 27 0 22 -3 44 -10 50 -14 14
-13 37 -11 29 3 -5 7 -3 8 5 3 8 -4 18 1 27 14 9 12 20 19 25 16 5 -4 9 -4 9
-1 0 2 3 12 7 22 5 14 1 16 -25 12 -23 -3 -32 -1 -32 9 0 11 13 13 63 7 34 -3
66 -10 72 -15z m-410 -321 c14 -2 19 -10 17 -25 -2 -18 4 -22 45 -28 26 -4 42
-10 35 -12 -17 -7 -4 -23 19 -23 10 0 19 -7 19 -15 0 -8 6 -15 13 -15 9 0 9
-2 -1 -9 -11 -7 -10 -9 3 -15 25 -9 7 -26 -26 -24 -23 2 -29 7 -29 25 0 12 -5
25 -10 28 -16 10 -50 -5 -50 -21 0 -8 -9 -14 -20 -14 -11 0 -20 4 -20 8 0 4
-16 6 -35 4 -19 -2 -43 -1 -52 2 -14 6 -12 9 11 21 16 8 37 15 47 15 23 0 48
42 29 48 -9 3 -9 7 1 14 10 7 8 8 -8 5 -20 -5 -23 -1 -23 26 0 18 4 27 8 21 4
-7 16 -13 27 -16z m-470 -170 c28 -25 33 -43 9 -34 -21 8 -54 -2 -54 -15 0 -6
4 -8 9 -5 5 4 11 0 14 -6 3 -10 9 -10 28 -1 13 7 36 11 52 10 24 -2 26 -3 10
-14 -9 -7 -32 -13 -50 -13 -21 0 -36 -6 -39 -15 -9 -22 -31 -18 -37 6 -4 15
-11 20 -23 15 -12 -4 -15 -2 -10 9 4 11 -2 15 -21 15 -21 0 -23 -2 -13 -15 20
-24 -32 -38 -92 -25 -69 14 -99 13 -114 -7 -13 -17 -13 -17 -14 3 0 11 -6 26
-12 33 -11 11 -9 11 9 2 38 -20 49 -11 18 15 l-30 26 34 -7 c23 -5 31 -4 27 4
-4 6 -1 11 7 11 8 0 17 -6 20 -14 8 -20 64 -31 83 -15 10 8 11 14 4 19 -7 5
-6 11 5 20 13 11 15 9 16 -11 0 -13 3 -19 5 -13 3 7 31 10 77 8 40 -1 62 -1
50 2 -18 4 -20 8 -10 19 15 18 13 19 42 -7z m1185 -43 c0 -18 5 -25 20 -25 18
0 25 10 21 33 -1 9 8 8 34 -3 17 -7 17 -9 3 -9 -11 -1 -19 -10 -19 -21 -1 -11
-2 -26 -3 -32 -1 -7 -5 -16 -11 -20 -7 -5 -6 -14 3 -28 13 -22 3 -27 -16 -8
-7 7 -12 8 -12 4 0 -5 -7 -3 -15 4 -12 10 -16 9 -21 -4 -8 -22 -70 -22 -82 0
-13 23 -49 9 -55 -21 -4 -26 2 -31 19 -16 5 5 24 3 44 -4 19 -8 27 -14 18 -14
-10 -1 -18 -8 -18 -16 0 -9 -6 -12 -17 -8 -11 4 -15 2 -10 -3 5 -5 18 -9 30
-9 12 0 23 -7 25 -17 2 -12 -2 -15 -17 -11 -15 4 -21 1 -21 -11 0 -9 7 -16 15
-16 13 0 13 -3 3 -20 -16 -25 -30 -26 -27 -2 1 9 -1 26 -5 37 -5 11 -10 26
-12 34 -2 7 -11 11 -19 7 -16 -6 -50 46 -38 58 4 3 -7 6 -23 6 -28 1 -28 1
-10 15 11 8 31 15 45 16 l26 0 -23 10 c-13 5 -36 10 -52 11 -27 2 -28 3 -13
20 9 11 30 18 50 18 23 0 33 5 33 15 0 8 2 15 4 15 2 0 11 3 20 6 11 4 16 0
16 -14 0 -11 -6 -23 -12 -25 -7 -3 -1 -6 14 -6 22 -1 25 2 21 20 -4 16 -2 20
8 17 21 -7 23 -37 4 -58 -11 -12 -13 -20 -5 -25 16 -10 40 2 40 21 0 11 6 15
19 11 26 -7 15 32 -13 43 l-21 9 22 0 c16 1 20 6 16 21 -3 11 0 20 6 20 6 0
11 -11 11 -25z m-435 -45 c28 -4 38 -8 24 -9 -14 0 -29 -4 -32 -7 -7 -8 36
-44 52 -44 6 0 8 -6 5 -14 -3 -9 5 -20 23 -30 19 -10 22 -15 11 -16 -9 0 -20
5 -23 10 -3 6 -16 10 -27 10 -21 0 -21 0 2 -20 13 -11 35 -23 49 -26 49 -11
46 -14 -6 -8 -37 4 -53 2 -53 -6 0 -6 10 -10 22 -8 15 2 24 -3 26 -14 3 -14
-4 -18 -31 -18 -22 0 -37 -6 -41 -15 -3 -8 -13 -15 -22 -15 -29 0 -7 -13 33
-19 l38 -7 -22 -19 c-16 -13 -21 -26 -17 -42 7 -26 -12 -31 -47 -13 -22 13
-26 50 -4 50 8 0 15 7 15 15 0 8 -4 15 -10 15 -5 0 -10 -5 -10 -10 0 -6 -10
-8 -24 -4 -20 5 -25 1 -29 -18 -4 -20 -4 -20 -6 5 -1 24 -4 27 -23 22 -13 -4
-28 -13 -34 -21 -6 -8 -17 -14 -25 -14 -12 0 -11 -2 1 -9 8 -6 26 -8 40 -7 14
2 19 1 12 -1 -18 -6 -5 -23 18 -23 24 0 16 -29 -9 -31 -9 -1 -2 -5 14 -9 l30
-8 -27 -1 c-15 0 -29 -5 -32 -10 -9 -14 -56 0 -56 18 0 12 2 13 9 3 7 -11 9
-11 14 2 7 17 5 17 -53 21 -19 2 -29 1 -22 -2 6 -3 12 -11 12 -19 0 -8 -6 -14
-12 -14 -22 0 -41 17 -34 29 5 7 -4 11 -26 11 -25 0 -36 6 -45 25 -8 19 -8 27
0 32 12 8 -27 20 -72 22 -19 1 -22 -3 -18 -19 3 -11 0 -20 -6 -20 -26 0 11
-19 43 -22 41 -4 47 -22 8 -26 -17 -2 -30 -11 -33 -24 -6 -17 -12 -19 -43 -13
-63 13 -67 12 -65 -12 2 -19 -2 -23 -23 -23 -14 0 -23 4 -19 9 3 5 0 13 -6 17
-8 4 -7 9 2 15 11 7 9 9 -5 9 -34 0 -87 24 -82 36 5 14 -15 24 -45 24 -11 0
-17 5 -14 10 3 6 1 10 -4 10 -6 0 -11 -5 -11 -11 0 -6 -9 -8 -20 -4 -14 5 -20
2 -20 -9 0 -9 -7 -16 -16 -16 -23 0 -55 20 -49 31 4 5 1 9 -6 9 -9 0 -10 3 -2
11 15 15 59 7 55 -11 -3 -10 3 -9 20 5 13 11 26 25 31 30 4 6 11 4 17 -5 7
-11 12 -12 21 -3 9 9 3 13 -25 18 -20 4 -34 11 -31 15 8 13 -5 38 -22 45 -9 3
-20 0 -24 -7 -6 -9 -11 -9 -23 1 -13 11 -16 11 -16 -1 0 -8 6 -20 13 -27 10
-11 9 -12 -3 -5 -8 4 -24 8 -35 8 -17 -1 -17 0 -2 3 23 6 19 42 -6 57 -14 9
-21 7 -31 -6 -7 -10 -19 -18 -27 -17 -12 0 -12 1 0 6 11 5 11 7 0 14 -12 7
-12 10 -1 18 11 7 11 11 -1 23 -13 12 -6 14 52 11 36 -1 74 -4 83 -6 30 -6 33
-17 5 -17 -17 0 -27 -5 -27 -14 0 -8 -6 -17 -12 -19 -8 -4 -7 -6 3 -6 9 -1 20
6 23 15 4 12 13 14 32 10 19 -5 24 -3 18 5 -5 9 -1 10 14 7 17 -5 22 -2 22 13
0 10 3 19 6 19 15 0 44 -22 44 -34 0 -8 11 -17 25 -20 14 -4 25 -12 25 -20 0
-7 14 -16 31 -20 33 -6 71 -36 47 -36 -9 -1 76 -34 98 -40 1 0 4 7 8 15 3 8 2
14 -2 14 -36 -6 -64 4 -71 24 -5 12 -7 27 -4 32 5 14 82 50 90 42 3 -4 0 -7
-9 -7 -8 0 -23 -9 -32 -19 -17 -19 -17 -20 3 -30 11 -6 27 -11 36 -11 24 0 95
-24 95 -32 0 -4 11 -3 25 4 19 8 28 8 40 -2 19 -16 19 -30 0 -30 -9 0 -15 -9
-15 -24 0 -13 -5 -26 -11 -28 -7 -2 4 -4 25 -4 24 0 36 5 36 14 0 9 7 11 21 7
15 -5 19 -4 15 4 -4 6 -14 11 -22 11 -8 0 -14 9 -14 21 0 16 4 19 18 14 33
-13 64 -16 57 -5 -3 5 -1 10 4 10 6 0 11 6 11 14 0 16 37 28 46 15 3 -5 18 -8
34 -7 23 2 27 5 18 16 -7 8 -21 11 -35 7 -15 -3 -23 -1 -23 7 0 9 -3 9 -11 1
-6 -6 -17 -9 -24 -6 -8 3 -15 -4 -17 -18 -2 -16 -11 -23 -30 -25 -19 -2 -28 2
-28 11 0 8 -8 19 -17 25 -16 10 -15 11 6 6 32 -7 64 11 57 31 -5 12 0 14 22
11 25 -3 28 -1 24 15 -3 10 1 23 9 28 10 6 10 9 2 9 -7 0 -10 7 -7 15 4 8 12
15 20 15 17 0 18 24 4 51 -8 13 -7 19 0 19 6 0 8 5 5 10 -7 12 28 12 100 0z
m-1215 -120 c6 -11 21 -20 34 -20 19 0 22 -4 18 -25 -5 -29 24 -36 31 -7 4 12
5 11 6 -6 0 -12 -6 -25 -14 -28 -8 -4 -15 -15 -15 -25 0 -24 -16 -25 -29 -1
-6 9 -11 11 -11 5 0 -18 -30 -16 -30 1 0 8 6 17 13 19 6 3 0 6 -15 6 -15 1
-45 7 -65 15 -37 14 -111 31 -85 20 17 -8 5 -24 -19 -24 -26 0 -24 -18 4 -23
16 -3 13 -5 -10 -6 -18 0 -33 -5 -33 -11 0 -5 -4 -10 -10 -10 -5 0 -7 6 -4 14
4 10 -7 16 -38 21 -24 4 -51 13 -61 20 -17 12 -16 14 14 29 39 19 39 19 39 3
0 -7 9 -18 19 -24 17 -11 21 -9 26 7 4 11 10 20 15 20 5 0 11 10 13 23 4 20 4
19 6 -4 1 -22 5 -26 26 -21 14 2 28 8 31 13 3 5 23 9 46 9 31 0 41 -4 45 -20
4 -16 9 -18 24 -9 11 5 24 7 29 4 6 -3 10 -1 10 4 0 6 -13 11 -30 11 -18 0
-30 5 -30 13 0 32 34 37 50 7z"/>
<path d="M8606 4421 c-3 -5 1 -11 9 -15 8 -3 15 -12 15 -19 0 -9 15 -17 40
-21 22 -3 40 -11 40 -17 0 -7 -10 -9 -25 -5 -24 6 -25 5 -13 -14 15 -24 37
-26 53 -4 9 13 16 14 33 5 11 -6 30 -11 41 -11 19 0 31 -19 14 -21 -16 -1 -39
-7 -58 -15 -18 -7 -19 -6 -6 9 16 20 11 30 -11 22 -15 -6 -20 -75 -5 -75 4 0
7 6 7 14 0 18 64 30 88 17 10 -5 53 -13 95 -17 68 -6 77 -5 77 10 0 9 6 16 13
16 6 0 -1 9 -18 20 l-30 20 37 0 c25 0 36 -4 34 -12 -1 -7 -1 -10 1 -5 3 4 29
7 58 7 40 0 54 4 59 16 8 21 1 28 -16 18 -11 -7 -28 -11 -63 -15 -5 -1 -48 6
-93 15 -58 11 -106 14 -155 9 -70 -6 -70 -6 -64 17 8 33 -9 60 -38 60 -14 0
-25 -4 -25 -10 0 -13 -46 -13 -70 0 -11 6 -21 6 -24 1z"/>
</g>
</svg>
